<svg width="35" height="27" viewBox="0 0 35 27" fill="none" xmlns="http://www.w3.org/2000/svg">
<path d="M32.9492 20.8541V17.6016C32.9492 14.2254 31.8606 11.0164 29.8011 8.32157C27.9729 5.92947 25.4453 4.09491 22.6231 3.09598C22.5446 1.46923 21.1967 0.169922 19.5508 0.169922H15.4492C13.8033 0.169922 12.4554 1.46923 12.3769 3.09598C9.55473 4.09491 7.02707 5.92947 5.19894 8.32157C3.1394 11.0164 2.05078 14.2254 2.05078 17.6016V20.8541C0.857295 21.2774 0 22.4171 0 23.7539C0 25.4501 1.37997 26.8301 3.07617 26.8301H31.9238C33.62 26.8301 35 25.4501 35 23.7539C35 22.4171 34.1427 21.2774 32.9492 20.8541ZM4.10156 17.6016C4.10156 13.9039 5.68107 10.4424 8.27148 7.9728V11.4492C8.27148 12.0155 8.73059 12.4746 9.29688 12.4746C9.86316 12.4746 10.3223 12.0155 10.3223 11.4492V6.36444C10.9684 5.95196 11.6537 5.59212 12.373 5.29264V13.5C12.373 14.0663 12.8321 14.5254 13.3984 14.5254C13.9647 14.5254 14.4238 14.0663 14.4238 13.5V3.85668C14.4239 3.85388 14.4238 3.85107 14.4238 3.84827V3.24609C14.4238 2.68069 14.8838 2.2207 15.4492 2.2207H19.5508C20.1162 2.2207 20.5762 2.68069 20.5762 3.24609V3.848C20.5762 3.85094 20.5761 3.85381 20.5762 3.85675V13.5C20.5762 14.0663 21.0353 14.5254 21.6016 14.5254C22.1679 14.5254 22.627 14.0663 22.627 13.5V5.29264C23.3463 5.59219 24.0316 5.95203 24.6777 6.36444V11.4492C24.6777 12.0155 25.1368 12.4746 25.7031 12.4746C26.2694 12.4746 26.7285 12.0155 26.7285 11.4492V7.9728C29.3189 10.4424 30.8984 13.9039 30.8984 17.6016V20.6777H4.10156V17.6016ZM31.9238 24.7793H3.07617C2.51077 24.7793 2.05078 24.3193 2.05078 23.7539C2.05078 23.1885 2.51077 22.7285 3.07617 22.7285H31.9238C32.4892 22.7285 32.9492 23.1885 32.9492 23.7539C32.9492 24.3193 32.4892 24.7793 31.9238 24.7793Z" fill="white"/>
</svg>
