<svg width="22" height="18" viewBox="0 0 22 18" fill="none" xmlns="http://www.w3.org/2000/svg">
<path opacity="0.5" d="M0.180664 9C1.12066 3.88 5.60766 0 10.9997 0C16.3917 0 20.8777 3.88 21.8187 9C20.8787 14.12 16.3917 18 10.9997 18C5.60766 18 1.12166 14.12 0.180664 9ZM10.9997 14C12.3257 14 13.5975 13.4732 14.5352 12.5355C15.4729 11.5979 15.9997 10.3261 15.9997 9C15.9997 7.67392 15.4729 6.40215 14.5352 5.46447C13.5975 4.52678 12.3257 4 10.9997 4C9.67358 4 8.40181 4.52678 7.46413 5.46447C6.52645 6.40215 5.99966 7.67392 5.99966 9C5.99966 10.3261 6.52645 11.5979 7.46413 12.5355C8.40181 13.4732 9.67358 14 10.9997 14ZM10.9997 12C10.204 12 9.44095 11.6839 8.87834 11.1213C8.31573 10.5587 7.99966 9.79565 7.99966 9C7.99966 8.20435 8.31573 7.44129 8.87834 6.87868C9.44095 6.31607 10.204 6 10.9997 6C11.7953 6 12.5584 6.31607 13.121 6.87868C13.6836 7.44129 13.9997 8.20435 13.9997 9C13.9997 9.79565 13.6836 10.5587 13.121 11.1213C12.5584 11.6839 11.7953 12 10.9997 12Z" fill="black"/>
</svg>
