<?xml version="1.0" encoding="UTF-8" standalone="no"?>
<svg
   xmlns:dc="http://purl.org/dc/elements/1.1/"
   xmlns:cc="http://creativecommons.org/ns#"
   xmlns:rdf="http://www.w3.org/1999/02/22-rdf-syntax-ns#"
   xmlns:svg="http://www.w3.org/2000/svg"
   xmlns="http://www.w3.org/2000/svg"
   xmlns:sodipodi="http://sodipodi.sourceforge.net/DTD/sodipodi-0.dtd"
   xmlns:inkscape="http://www.inkscape.org/namespaces/inkscape"
   width="36"
   height="36"
   viewBox="0 0 36 36"
   fill="none"
   version="1.1"
   id="svg4"
   sodipodi:docname="gear.svg"
   inkscape:version="1.0.1 (3bc2e813f5, 2020-09-07)">
  <metadata
     id="metadata10">
    <rdf:RDF>
      <cc:Work
         rdf:about="">
        <dc:format>image/svg+xml</dc:format>
        <dc:type
           rdf:resource="http://purl.org/dc/dcmitype/StillImage" />
        <dc:title></dc:title>
      </cc:Work>
    </rdf:RDF>
  </metadata>
  <defs
     id="defs8" />
  <sodipodi:namedview
     pagecolor="#ffffff"
     bordercolor="#666666"
     borderopacity="1"
     objecttolerance="10"
     gridtolerance="10"
     guidetolerance="10"
     inkscape:pageopacity="0"
     inkscape:pageshadow="2"
     inkscape:window-width="1920"
     inkscape:window-height="1017"
     id="namedview6"
     showgrid="false"
     inkscape:zoom="16.695577"
     inkscape:cx="13.001064"
     inkscape:cy="26.210149"
     inkscape:window-x="-8"
     inkscape:window-y="-8"
     inkscape:window-maximized="1"
     inkscape:current-layer="svg4" />
  <path
     d="M34.4062 14.7188H30.7017C30.3966 13.5244 29.9284 12.3923 29.3039 11.3358L31.9213 8.71844C32.1269 8.51281 32.2417 8.235 32.2417 7.94516C32.2417 7.65531 32.1269 7.37641 31.9213 7.17188L28.827 4.07766C28.3994 3.65 27.7081 3.65 27.2805 4.07766L24.6631 6.695C23.6077 6.07156 22.4756 5.60453 21.2812 5.29828V1.59375C21.2812 0.99 20.7913 0.5 20.1875 0.5H15.8125C15.2087 0.5 14.7188 0.99 14.7188 1.59375V5.29828C13.5244 5.60453 12.3923 6.07266 11.3358 6.69609L8.71953 4.07875C8.29187 3.65109 7.60063 3.65109 7.17297 4.07875L4.07875 7.17297C3.65109 7.60063 3.65109 8.29187 4.07875 8.71953L6.69609 11.3369C6.07156 12.3934 5.60344 13.5255 5.29828 14.7188H1.59375C0.99 14.7188 0.5 15.2087 0.5 15.8125V20.1875C0.5 20.7913 0.99 21.2812 1.59375 21.2812H5.29828C5.60344 22.4745 6.07156 23.6066 6.69609 24.6642L4.07875 27.2816C3.65109 27.7092 3.65109 28.4005 4.07875 28.8281L7.17297 31.9223C7.60063 32.35 8.29187 32.35 8.71953 31.9223L11.3369 29.305C12.3934 29.9284 13.5255 30.3966 14.7198 30.7028V34.4062C14.7198 35.01 15.2098 35.5 15.8136 35.5H20.1886C20.7923 35.5 21.2823 35.01 21.2823 34.4062V30.7017C22.4767 30.3955 23.6087 29.9273 24.6653 29.3039L27.2827 31.9213C27.7103 32.3489 28.4016 32.3489 28.8292 31.9213L31.9234 28.827C32.1291 28.6214 32.2439 28.3436 32.2439 28.0537C32.2439 27.7639 32.1291 27.485 31.9234 27.2805L29.3061 24.6631C29.9306 23.6066 30.3988 22.4745 30.7039 21.2802H34.4062C35.01 21.2802 35.5 20.7902 35.5 20.1864V15.8114C35.5 15.2087 35.01 14.7188 34.4062 14.7188ZM33.3125 19.0938H29.8234C29.2962 19.0938 28.8434 19.4711 28.7483 19.9895C28.4683 21.5142 27.8831 22.9284 27.0103 24.195C26.7106 24.6292 26.7642 25.2166 27.1372 25.5895L29.6025 28.0537L28.0548 29.6014L25.5906 27.1372C25.2188 26.7653 24.6314 26.7106 24.1972 27.0103C22.9306 27.882 21.5164 28.4672 19.9906 28.7483C19.47 28.8434 19.0938 29.2952 19.0938 29.8234V33.3125H16.9062V29.8234C16.9062 29.2962 16.53 28.8434 16.0105 28.7483C14.4847 28.4672 13.0705 27.882 11.8039 27.0103C11.3708 26.7117 10.7834 26.7653 10.4105 27.1372L7.94625 29.6014L6.39859 28.0537L8.86281 25.5895C9.23578 25.2166 9.28938 24.6303 8.98969 24.1961C8.11688 22.9295 7.53172 21.5142 7.25172 19.9906C7.15766 19.4711 6.70484 19.0938 6.17656 19.0938H2.6875V16.9062H6.17656C6.70375 16.9062 7.15656 16.5289 7.25172 16.0105C7.53172 14.4869 8.11688 13.0716 8.98969 11.805C9.28938 11.3708 9.23578 10.7845 8.86281 10.4116L6.39859 7.94625L7.94625 6.39859L10.4105 8.86281C10.7845 9.23578 11.3708 9.29156 11.8039 8.98969C13.0705 8.11797 14.4847 7.53281 16.0105 7.25172C16.53 7.15656 16.9062 6.70484 16.9062 6.17656V2.6875H19.0938V6.17656C19.0938 6.70375 19.47 7.15656 19.9895 7.25172C21.5153 7.53281 22.9295 8.11797 24.1961 8.98969C24.6303 9.29047 25.2188 9.23578 25.5895 8.86281L28.0537 6.39859L29.6014 7.94625L27.1361 10.4105C26.7631 10.7834 26.7095 11.3697 27.0092 11.805C27.882 13.0716 28.4672 14.4858 28.7472 16.0105C28.8423 16.5289 29.2952 16.9062 29.8234 16.9062H33.3125V19.0938Z"
     fill="white"
     id="path2" />
  <g
     style="fill:none"
     id="g36"
     transform="translate(11.300727,11.28972)">
    <path
       d="M 7,0.4375 C 3.38078,0.4375 0.4375,3.38078 0.4375,7 c 0,3.6192 2.94328,6.5625 6.5625,6.5625 3.6192,0 6.5625,-2.9433 6.5625,-6.5625 C 13.5625,3.38078 10.6192,0.4375 7,0.4375 Z M 7,11.375 C 4.58719,11.375 2.625,9.41281 2.625,7 2.625,4.58719 4.58719,2.625 7,2.625 c 2.41281,0 4.375,1.96219 4.375,4.375 0,2.41281 -1.96219,4.375 -4.375,4.375 z"
       fill="#ffffff"
       id="path25" />
  </g>
</svg>
