<svg width="35" height="35" viewBox="0 0 35 35" fill="none" xmlns="http://www.w3.org/2000/svg">
<path d="M11.3477 6.15234C8.52065 6.15234 6.2207 8.4523 6.2207 11.2793C6.2207 14.1063 8.52065 16.4062 11.3477 16.4062C14.1747 16.4062 16.4746 14.1063 16.4746 11.2793C16.4746 8.4523 14.1747 6.15234 11.3477 6.15234ZM11.3477 14.3555C9.65146 14.3555 8.27148 12.9755 8.27148 11.2793C8.27148 9.5831 9.65146 8.20312 11.3477 8.20312C13.0439 8.20312 14.4238 9.5831 14.4238 11.2793C14.4238 12.9755 13.0439 14.3555 11.3477 14.3555Z" fill="white"/>
<path d="M17.5 18.457C18.0663 18.457 18.5254 17.9979 18.5254 17.4316C18.5254 16.8653 18.0663 16.4062 17.5 16.4062C16.9337 16.4062 16.4746 16.8653 16.4746 17.4316C16.4746 17.9979 16.9337 18.457 17.5 18.457Z" fill="white"/>
<path d="M33.9746 14.3555C33.5702 14.3555 23.2684 14.3555 22.627 14.3555V11.2793C22.627 10.9336 22.6105 10.5917 22.5799 10.2539H23.6523C24.2186 10.2539 24.6777 9.7948 24.6777 9.22852V5.12695C24.6777 3.43075 23.2978 2.05078 21.6016 2.05078H17.8253C15.991 0.759404 13.7564 0 11.3477 0C5.09052 0 0 5.05989 0 11.2793C0 17.4987 5.09052 22.5586 11.3477 22.5586H21.6016C22.1679 22.5586 22.627 22.0995 22.627 21.5332V20.5078C23.1202 20.5078 32.6376 20.5078 32.9492 20.5078V21.5332C32.9492 22.0995 33.4083 22.5586 33.9746 22.5586C34.5409 22.5586 35 22.0995 35 21.5332C35 20.7601 35 16.0128 35 15.3809C35 14.8146 34.5409 14.3555 33.9746 14.3555ZM20.5762 15.3809C20.5762 15.9165 20.5762 19.9996 20.5762 20.5078H11.3477C6.22132 20.5078 2.05078 16.3679 2.05078 11.2793C2.05078 6.19069 6.22139 2.05078 11.3477 2.05078C16.4363 2.05078 20.5762 6.19069 20.5762 11.2793V15.3809ZM22.2005 8.20312C21.7686 6.68131 21.0244 5.28951 20.042 4.10156H21.6016C22.167 4.10156 22.627 4.56155 22.627 5.12695V8.20312H22.2005ZM28.7793 18.457H22.627V16.4062H28.7793V18.457ZM32.9492 18.457H30.8301V16.4062H32.9492V18.457Z" fill="white"/>
<path d="M33.9746 26.7969H1.02539C0.459102 26.7969 0 27.256 0 27.8223V33.9746C0 34.5409 0.459102 35 1.02539 35H33.9746C34.5409 35 35 34.5409 35 33.9746V27.8223C35 27.256 34.5409 26.7969 33.9746 26.7969ZM32.9492 32.9492H2.05078V28.8477H7.24609V29.873C7.24609 30.4393 7.7052 30.8984 8.27148 30.8984C8.83777 30.8984 9.29688 30.4393 9.29688 29.873V28.8477H13.3984V29.873C13.3984 30.4393 13.8575 30.8984 14.4238 30.8984C14.9901 30.8984 15.4492 30.4393 15.4492 29.873V28.8477H19.5508V29.873C19.5508 30.4393 20.0099 30.8984 20.5762 30.8984C21.1425 30.8984 21.6016 30.4393 21.6016 29.873V28.8477H25.7031V29.873C25.7031 30.4393 26.1622 30.8984 26.7285 30.8984C27.2948 30.8984 27.7539 30.4393 27.7539 29.873V28.8477H32.9492V32.9492Z" fill="white"/>
</svg>
